<?xml version="1.0" encoding="UTF-8"?> <svg xmlns="http://www.w3.org/2000/svg" id="_Слой_2" data-name="Слой 2" viewBox="0 0 226.77 51.58"><defs><style> .cls-1 { fill: #fff; } </style></defs><g id="Layer_1" data-name="Layer 1"><g><path class="cls-1" d="M133.21,32.96v-6.56h1.04c3.47,0,4.83-1.6,4.83-5.7v-9.61c-.01-3.49,1.09-6.19,3.27-8.01,1.94-1.63,4.7-2.48,7.97-2.48h1.65v6.46h-1.07c-3.25,0-4.83,1.8-4.83,5.49v9.91c.01,7.06-3.67,10.5-11.24,10.5h-1.63Z"></path><path class="cls-1" d="M178.35,51.58c-3.42,0-6.11-1.14-8.47-2.15-.33-.14-.65-.28-.97-.41-1.93-.8-4.21-1.65-6.8-1.65s-4.87.85-6.8,1.65c-.31.13-.64.27-.97.41-2.37,1.01-5.05,2.15-8.47,2.15s-6.11-1.14-8.47-2.15c-.33-.14-.65-.28-.97-.41-1.93-.8-4.21-1.65-6.8-1.65s-4.87.85-6.8,1.65c-.31.13-.64.27-.97.41-2.37,1.01-5.05,2.15-8.47,2.15s-6.11-1.14-8.47-2.15c-.33-.14-.65-.28-.97-.41-1.93-.8-4.21-1.65-6.8-1.65s-4.87.85-6.8,1.65c-.31.13-.64.27-.97.41-2.37,1.01-5.05,2.15-8.47,2.15s-6.11-1.14-8.47-2.15c-.33-.14-.65-.28-.97-.41-1.93-.8-4.21-1.65-6.8-1.65s-4.87.85-6.8,1.65c-.31.13-.64.27-.97.41-2.37,1.01-5.05,2.15-8.47,2.15s-6.11-1.14-8.47-2.15c-.33-.14-.65-.28-.97-.41-1.93-.8-4.21-1.65-6.8-1.65-2.23,0-4.46.47-6.8,1.44-.31.13-.64.27-.97.41-2.37,1.01-5.05,2.15-8.47,2.15-3.59,0-6.87-1.36-9.32-2.55-1.6-.78-3.56-1.6-6.62-1.65v-6.65c4.25.06,6.99,1.29,9.43,2.54,2.16,1.12,4.29,1.66,6.51,1.66,2.75,0,4.57-.8,6.49-1.65,2.31-1.02,5.8-2.55,9.75-2.55s7.44,1.54,9.75,2.55c1.93.85,3.75,1.65,6.49,1.65s4.57-.8,6.49-1.65c2.31-1.02,5.8-2.55,9.75-2.55s7.44,1.54,9.75,2.55c1.93.85,3.75,1.65,6.49,1.65s4.57-.8,6.49-1.65c2.31-1.02,5.8-2.55,9.75-2.55s7.44,1.54,9.75,2.55c1.93.85,3.75,1.65,6.49,1.65s4.57-.8,6.49-1.65c2.31-1.02,5.8-2.55,9.75-2.55s7.44,1.54,9.75,2.55c1.93.85,3.75,1.65,6.49,1.65s4.57-.8,6.49-1.65c2.31-1.02,5.8-2.55,9.75-2.55s7.44,1.54,9.75,2.55c1.93.85,3.75,1.65,6.49,1.65s4.57-.8,6.49-1.65c2.31-1.02,5.8-2.55,9.75-2.55s7.44,1.54,9.75,2.55c1.93.85,3.75,1.65,6.49,1.65,2.21,0,4.34-.54,6.51-1.66,2.44-1.26,5.18-2.49,9.43-2.54v6.65c-3.06.05-5.02.88-6.62,1.65-2.45,1.19-5.72,2.55-9.32,2.55s-6.11-1.14-8.47-2.15c-.33-.14-.65-.28-.97-.41-2.34-.97-4.57-1.44-6.8-1.44-2.59,0-4.87.85-6.8,1.65-.31.13-.64.27-.97.41-2.37,1.01-5.05,2.15-8.47,2.15Z"></path><path class="cls-1" d="M15.5,33.56C5.8,33.56,0,27.28,0,16.78S5.94,0,15.5,0c7,0,11.92,3.72,13.24,9.96h-8.01c-.71-2.07-2.67-3.31-5.28-3.31-4.66,0-7.56,3.88-7.56,10.12s2.95,10.26,7.69,10.26c3.3,0,5.76-1.97,6.26-5.02l.04-.24-5.42-2.07v-6.7h.36l13.28,5.5v6.34h-.18l-1.22-.47-.1.3c-1.95,5.73-6.61,8.88-13.12,8.88Z"></path><path class="cls-1" d="M55.91,33.91l-15.13-5.78v4.83h-7.72V.6h12.98c7.3,0,11.65,3.76,11.65,10.07s-4.25,10.09-11.65,10.09h-5.26v.61l15.63,6.1v6.44h-.51ZM40.79,14.74h4.19c3.2,0,4.83-1.32,4.83-3.93s-1.58-3.74-4.83-3.74h-4.19v7.67Z"></path><path class="cls-1" d="M60.56,32.96v-4.87c0-5.03,2.96-7.36,5.34-9.23,1.44-1.13,2.7-2.12,2.87-3.46h7.43c-.17,2.45-2.35,4.52-4.28,6.36-1.62,1.55-3.03,2.89-3.03,4.23v.3h13.57v6.66h-21.9Z"></path><polygon class="cls-1" points="60.56 14.79 60.56 .6 82.26 .6 82.26 7.26 68.28 7.26 68.28 14.79 60.56 14.79"></polygon><polygon class="cls-1" points="114.36 32.96 114.36 .6 130.79 .6 130.79 7.26 122.08 7.26 122.08 26.3 130.79 26.3 130.79 32.96 114.36 32.96"></polygon><path class="cls-1" d="M85.3,32.96V.6h23.92v.03l-4.26,12.91.29.1c4.15,1.4,6.35,4.48,6.35,8.93,0,6.7-4.27,10.39-12.01,10.39h-14.28ZM93.02,26.53h5.51c4.49,0,5.16-2.42,5.16-3.87,0-2.57-1.69-3.82-5.16-3.82h-2.62l3.89-11.67h-6.78v19.36Z"></path><path class="cls-1" d="M173.45,32.96v-8.77h-11.16v8.77h-7.72V.6h7.72v9.16h11.16V.6h7.72v32.36h-7.72ZM162.29,18.51h11.16v-3.06h-11.16v3.06Z"></path><polygon class="cls-1" points="203.16 32.96 197.29 20.76 193.04 20.76 193.04 32.96 185.32 32.96 185.32 .6 193.04 .6 193.04 13.96 197.26 13.96 202.77 .6 210.48 .6 203.44 17.24 210.86 32.96 203.16 32.96"></polygon><polygon class="cls-1" points="213.18 32.96 213.18 27.01 216.11 27.01 216.11 6.55 213.18 6.55 213.18 .6 226.77 .6 226.77 6.55 223.83 6.55 223.83 27.01 226.77 27.01 226.77 32.96 213.18 32.96"></polygon><rect class="cls-1" x="124.22" y="13.65" width="5.73" height="5.73" transform="translate(25.54 94.7) rotate(-45)"></rect></g></g></svg> 